Feature, Threesome
------------------

Studio: Digital Playground

Cast: Bridgette B., Jesse Jane , Katsumi, Kayden Kross, Mick Blue, Raven Alexis, Riley Steele, Scott Nails, Tommy Gunn

Plot: Feature porn! Fire has never been so hot since these sexy firefighters took over the station in the adult DVD Body Heat. Dangerous explosions, life or death situations, and powerful desire makes everyone live for the moment. For the first time ever, Digital Playground contract stars Jesse Jane and Kayden Kross sizzle together as a dynamic duo burning up the screen with scorching passion. Riley Steele, Raven Alexis and Katsumi help fuel the flames in an epic orgy atop a fire engine that will make your temperature soar. Male studs Scott Nails, Manuel Ferrara, Evan Stone, and Tommy Gunn ignite the action in this die for movie. Play with fire never hurt so good!

Body.Heat.XXX.AC3.BD.x264.1080p-MGA
Format : Matroska
File size : 8.82 GiB
Duration : 2h 19mn
Overall bit rate : 9 069 Kbps
  
Video
Format : AVC
Format/Info : Advanced Video Codec
Format profile : High@L4.1
Format settings, CABAC : Yes
Format settings, ReFrames : 5 frames
Muxing mode : Header stripping
Codec ID : V_MPEG4/ISO/AVC
Duration : 2h 19mn
Bit rate : 8 248 Kbps
Width : 1 920 pixels
Height : 1 080 pixels
Display aspect ratio : 16:9
Frame rate : 23.976 fps
Color space : YUV
Chroma subsampling : 4:2:0
Bit depth : 8 bits
Scan type : Progressive
Bits/(Pixel*Frame) : 0.166
Stream size : 8.02 GiB (91%)
Writing library : x264 core 98 r1649 c54c47d
Language : English

Audio
Format : AC-3
Format/Info : Audio Coding 3
Mode extension : CM (complete main)
Muxing mode : Header stripping
Codec ID : A_AC3
Duration : 2h 19mn
Bit rate mode : Constant
Bit rate : 640 Kbps
Channel(s) : 6 channels
Channel positions : Front: L C R, Side: L R, LFE
Sampling rate : 48.0 KHz
Bit depth : 16 bits
Compression mode : Lossy
Stream size : 638 MiB (7%)
Language : English

Cover
-----
 
http://unhidefreepic.com/?v=1ooo.jpg
 
http://unhidefreepic.com/?v=2rxr.jpg

screens
-------
 
http://unhidefreepic.com/?v=bodyheatxx.png
 
http://unhidefreepic.com/?v=bodyheiqi.png
 
http://unhidefreepic.com/?v=bodyhevnv.png
 
http://unhidefreepic.com/?v=1110370430.jpg